<svg height="84" viewBox="0 0 381 84" width="381" xmlns="http://www.w3.org/2000/svg" xmlns:xlink="http://www.w3.org/1999/xlink"><mask id="a" fill="#fff"><path d="m54.625 69.728h16.292v14.015h-16.292z" fill="#fff" fill-rule="evenodd"/></mask><g fill="none" fill-rule="evenodd"><path d="m386.365889 58v-8.8786765c0-1.7095588-1.243298-2.0404411-1.864947-2.0404411s-1.866831.3308823-1.866831 2.0404411v8.8786765h-4.634111v-14.8345588h4.522968v1.2132353c.932473-.9099265 2.315171-1.3786765 3.532096-1.3786765 1.441096 0 2.599624.46875 3.417186 1.2683824 1.301696 1.2683823 1.52775 2.6746323 1.52775 4.2463235v9.4852941z"/><path d="m6.4102982 19.6673793c-2.21894938 0-4.38310988-.1077515-6.4102982-2.1349398l2.9038103-2.9038103c1.23457594 1.2327497 2.82162698 1.2327497 3.59049751 1.2327497.65564018 0 1.91578427-.1917611 1.91578427-.9588053 0-.4109166-.19176106-.8510538-1.06838303-.9332372l-2.27373825-.2173292c-2.54768262-.2483762-4.27353213-1.3971162-4.27353213-4.27353209 0-3.25993797 2.93120473-4.87620974 5.86240946-4.87620974 2.41071043 0 4.35571547.35612768 5.80762057 1.80803283l-2.76683809 2.76683811c-.73964979-.73964979-1.97239945-.87662198-3.12296579-.87662198-1.09577747 0-1.45007885.5204943-1.45007885.84922754 0 .16436662-.05661517.71225536.95697899.82183311l2.27373825.21915552c3.09557139.3013388 4.43789879 2.136766 4.43789879 4.4926876 0 3.4772672-2.95859921 4.9839612-6.3829038 4.9839612m14.7656014 0c-2.5476826 0-6.6294537-1.0939512-6.6294537-7.5316438 0-6.43769266 4.0817711-7.53347013 6.6294537-7.53347013 2.0545828 0 3.6434601.68486092 4.8488153 1.89021614l-3.0407825 3.04078248c-.5752831-.57528317-1.068383-.87662198-1.8080328-.87662198-.6026776 0-1.0135942.19176106-1.3971163.57528317-.5204943.54788874-.7396498 1.50669402-.7396498 2.90381032s.2191555 2.3559215.7396498 2.901984c.3835221.3835221.7944387.5771094 1.3971163.5771094.7396498 0 1.2327497-.3013388 1.8080328-.8784482l3.0407825 3.0407825c-1.2053552 1.2053552-2.7942325 1.8902161-4.8488153 1.8902161m14.7929959-.1625403v-8.9305864c0-1.58887735-1.1505664-1.91761059-1.7258496-1.91761059-.5752831 0-1.7258495.32873324-1.7258495 1.91761059v8.9305864h-4.4908613v-19.504839h4.4908613v5.97198721c.9314109-.93141085 2.1093716-1.36972184 3.2325436-1.36972184 3.1777546 0 4.7118431 2.35592156 4.7118431 5.34191517v9.56065846zm14.491657-10.43728044c-.2739444-.27394436-.6574665-.41091655-1.2053552-.41091655-.5478888 0-.9314109.13697219-1.2053552.41091655-.5752832.57528318-.6574665 1.61627174-.6574665 3.06817694 0 1.4500788.0821833 2.4928937.6574665 3.0681769.2739443.2739444.6574664.4109165 1.2053552.4109165.5478887 0 .9314108-.1369721 1.2053552-.4109165.5752832-.5752832.6574665-1.6180981.6574665-3.0681769 0-1.4519052-.0821833-2.49289376-.6574665-3.06817694zm3.5338823 8.70960464c-.8766219.9332371-2.3559215 1.8902161-4.7392375 1.8902161s-3.8626156-.956979-4.7392376-1.8902161c-1.2327496-1.3405012-1.6162718-2.7394437-1.6162718-5.6414277 0-2.87641588.3835222-4.30092659 1.6162718-5.64325399.876622-.93141085 2.3559216-1.89021614 4.7392376-1.89021614s3.8626156.95880529 4.7392375 1.89021614c1.2327497 1.3423274 1.6162718 2.76683811 1.6162718 5.64325399 0 2.901984-.3835221 4.3009265-1.6162718 5.6414277zm10.2455194 1.8902161c-2.5476826 0-6.6294537-1.0939512-6.6294537-7.5316438 0-6.43769266 4.0817711-7.53347013 6.6294537-7.53347013 2.0545827 0 3.6416338.68486092 4.846989 1.89021614l-3.0407825 3.04078248c-.5734569-.57528317-1.068383-.87662198-1.8062065-.87662198-.6026776 0-1.0154205.19176106-1.3971163.57528317-.5223206.54788874-.7396498 1.50669402-.7396498 2.90381032s.2173292 2.3559215.7396498 2.901984c.3816958.3835221.7944387.5771094 1.3971163.5771094.7378235 0 1.2327496-.3013388 1.8062065-.8784482l3.0407825 3.0407825c-1.2053552 1.2053552-2.7924063 1.8902161-4.846989 1.8902161m14.7911695-.1625403v-8.9305864c0-1.58887735-1.1505663-1.91761059-1.7258495-1.91761059s-1.7258495.32873324-1.7258495 1.91761059v8.9305864h-4.4926876v-19.504839h4.4926876v5.97198721c.9314108-.93141085 2.1093716-1.36972184 3.2343698-1.36972184 3.1759284 0 4.7100168 2.35592156 4.7100168 5.34191517v9.56065846zm15.3701053-10.05375832c-.2757706-.63007205-.8784482-1.15056635-1.9468313-1.15056635-1.068383 0-1.6710606.5204943-1.9431787 1.15056635-.1935873.38352211-.2465499.79443862-.2465499 1.15056632h4.3831099c0-.3561277-.0566152-.76704421-.24655-1.15056632zm-4.1365599 4.13473362c0 1.2071815.9314108 2.302959 2.6024715 2.302959 1.5596566 0 2.2445175-.438311 3.0407825-1.2345759l2.6846548 2.6864811c-1.5066941 1.5048677-2.9859936 2.3267008-5.7254373 2.3267008-3.259938 0-7.0129758-1.1761345-7.0129758-7.5316438 0-4.82142089 2.7394436-7.53347013 6.6002329-7.53347013 4.2735322 0 6.6294537 3.12296579 6.6294537 6.98558133v1.9979676zm19.1742799-4.16212806c-.438311-.43831099-.849228-.76704423-1.616272-.76704423-.602678 0-1.808033.35612768-1.808033 2.02718829v8.8210087h-4.492688v-14.73820701h4.384936v1.20535522c.655641-.65746648 1.943179-1.36972184 3.477268-1.36972184 1.451905 0 2.438105.35612768 3.453525 1.36972184z" fill="#c2bcb0" transform="translate(129.696 36.886)"/><g fill="#fff"><path d="m0 19.6692056h4.49268763v-14.16292381h-4.49268763zm0-16.24490101h4.49268763v-3.42430459h-4.49268763zm23.7509767 16.24490101v-8.8210086c0-1.69845513-1.2053553-2.02718837-1.8080329-2.02718837s-1.8062065.32873324-1.8062065 2.02718837v8.8210086h-4.4926876v-8.8210086c0-1.69845513-1.2053552-2.02718837-1.8080328-2.02718837-.6026777 0-1.8098592.32873324-1.8098592 2.02718837v8.8210086h-4.49268759v-14.73820699h4.38493619v1.20535522c.9040164-.90401641 2.2445175-1.36972184 3.4243046-1.36972184 1.4519051 0 2.6280396.46570543 3.5886712 1.5614829 1.2875385-1.12317191 2.463673-1.5614829 4.1621281-1.5614829 1.3989425 0 2.7394437.46570543 3.5338823 1.26014409 1.2601441 1.2601441 1.6162718 2.65726037 1.6162718 4.21874322v9.4236863zm23.7254085 0v-8.8210086c0-1.69845513-1.2071815-2.02718837-1.8098591-2.02718837s-1.8062066.32873324-1.8062066 2.02718837v8.8210086h-4.4926876v-8.8210086c0-1.69845513-1.2053552-2.02718837-1.8080328-2.02718837s-1.8080328.32873324-1.8080328 2.02718837v8.8210086h-4.4926877v-14.73820699h4.3831099v1.20535522c.9040164-.90401641 2.2463438-1.36972184 3.4243046-1.36972184 1.4519051 0 2.6280396.46570543 3.5886712 1.5614829 1.2875385-1.12317191 2.463673-1.5614829 4.1621281-1.5614829 1.3989426 0 2.7394437.46570543 3.5357086 1.26014409 1.2583178 1.2601441 1.6144455 2.65726037 1.6144455 4.21874322v9.4236863zm14.5190515-10.43728042c-.2757707-.27394436-.6592928-.41091655-1.2053553-.41091655-.5478887 0-.9314108.13697219-1.2071815.41091655-.5752831.57528318-.6574665 1.61627182-.6574665 3.06817692 0 1.4500789.0821834 2.4928937.6574665 3.0681769.2757707.2739444.6592928.4109166 1.2071815.4109166.5460625 0 .9295846-.1369722 1.2053553-.4109166.5734568-.5752832.6556401-1.618098.6556401-3.0681769 0-1.4519051-.0821833-2.49289374-.6556401-3.06817692zm3.532056 8.70960462c-.876622.9332371-2.3559216 1.8902161-4.7374113 1.8902161-2.383316 0-3.8644418-.956979-4.7392375-1.8902161-1.234576-1.3405011-1.6180981-2.7394437-1.6180981-5.6414277 0-2.87641586.3835221-4.30092657 1.6180981-5.64325397.8747957-.93141085 2.3559215-1.89021614 4.7392375-1.89021614 2.3814897 0 3.8607893.95880529 4.7374113 1.89021614 1.2327497 1.3423274 1.6162718 2.76683811 1.6162718 5.64325397 0 2.901984-.3835221 4.3009266-1.6162718 5.6414277zm10.52129-9.12052117c-1.6710606 0-1.8628217 1.34232737-1.8628217 3.47909347 0 2.1349398.1917611 3.4790935 1.8628217 3.4790935 1.6710607 0 1.8628217-1.3441537 1.8628217-3.4790935 0-2.1367661-.191761-3.47909347-1.8628217-3.47909347zm4.9857875 9.67023617c-.8492275.8492275-2.1641605 1.3405011-3.5886712 1.3405011-1.5340885 0-2.4947201-.4638791-3.3987365-1.3697218v1.2071815h-4.3538891v-19.50483898h4.4926876v5.83501503c.8218331-.8218331 1.833601-1.23274966 3.2855061-1.23274966 1.426337 0 2.7138756.49309987 3.5631031 1.3423274 1.4500788 1.45190515 1.3697218 4.02698221 1.3697218 6.19114271s.080357 4.7374113-1.3697218 6.1911427zm4.0251559 1.1779608h4.4926876v-14.16292381h-4.4926876zm0-16.24490101h4.4926876v-3.42430459h-4.4926876zm12.0535522 16.24490101c-3.259938 0-4.5766973-2.3303534-4.5766973-4.3557155v-15.14912348h4.4926877v14.82039028c0 .5752832.3013388.9021901.9040164.9021901h1.5633092v3.7822586zm4.5200817 0h4.492688v-14.16292381h-4.492688zm0-16.24490101h4.492688v-3.42430459h-4.492688zm15.476031 6.19114271c-.273945-.63007205-.876622-1.15056634-1.945005-1.15056634s-1.671061.52049429-1.943179 1.15056634c-.193587.38352211-.24655.7944387-.24655 1.1505663h4.381284c0-.3561276-.054789-.76704419-.24655-1.1505663zm-4.134734 4.1347337c0 1.2071815.931411 2.3029589 2.602472 2.3029589 1.559656 0 2.244517-.438311 3.040782-1.2345759l2.682829 2.6864811c-1.506694 1.5048677-2.984168 2.3267008-5.723611 2.3267008-3.261765 0-7.012976-1.1761345-7.012976-7.5316438 0-4.82142087 2.739444-7.53347011 6.600233-7.53347011 4.273532 0 6.629453 3.12296579 6.629453 6.98558141v1.9979676zm19.395261 5.9190246v-8.8210086c0-1.69845513-1.205355-2.02718837-1.808032-2.02718837-.602678 0-1.80986.32873324-1.80986 2.02718837v8.8210086h-4.492687v-14.73820699h4.384936v1.20535522c.904016-.90401641 2.244517-1.36972184 3.424305-1.36972184 1.397116 0 2.520288.46570543 3.3129 1.26014409 1.261971 1.2601441 1.481126 2.65726037 1.481126 4.21874322v9.4236863z" transform="translate(244.137 36.721)"/><path d="m40.0579717 7.28144129c2.0107517 0 3.6416338-1.63088214 3.6416338-3.64163379 0-2.01075166-1.6308821-3.6398075-3.6416338-3.6398075-2.0107516 0-3.6416338 1.62905584-3.6416338 3.6398075 0 2.01075165 1.6308822 3.64163379 3.6416338 3.64163379m-9.1497419 6.73903141c1.9851836 0 3.5923238-1.6089666 3.5923238-3.5941501 0-1.98518349-1.6071402-3.59415007-3.5923238-3.59415007-1.9870098 0-3.5959764 1.60896658-3.5959764 3.59415007 0 1.9851835 1.6089666 3.5941501 3.5959764 3.5941501m18.2063427 0c1.9851835 0 3.5941501-1.6089666 3.5941501-3.5941501 0-1.98518349-1.6089666-3.59415007-3.5941501-3.59415007s-3.5923238 1.60896658-3.5923238 3.59415007c0 1.9851835 1.6071403 3.5941501 3.5923238 3.5941501m-27.2629435 6.0066869c2.0089254 0 3.6398075-1.6308822 3.6398075-3.6416338 0-2.0107517-1.6308821-3.6416338-3.6398075-3.6416338-2.0107516 0-3.64346 1.6308821-3.64346 3.6416338 0 2.0107516 1.6327084 3.6416338 3.64346 3.6416338m18.2063427 0c2.0107517 0 3.6416338-1.6308822 3.6416338-3.6416338 0-2.0107517-1.6308821-3.6416338-3.6416338-3.6416338-2.0107516 0-3.6416338 1.6308821-3.6416338 3.6416338 0 2.0107516 1.6308822 3.6416338 3.6416338 3.6416338m-27.3597371 6.5728385c1.9851835 0 3.5959764-1.6089666 3.5959764-3.5941501s-1.6107929-3.5941501-3.5959764-3.5941501-3.59232382 1.6089666-3.59232382 3.5941501 1.60714032 3.5941501 3.59232382 3.5941501m18.2099952 0c1.9851836 0 3.5923238-1.6089666 3.5923238-3.5941501s-1.6071402-3.5941501-3.5923238-3.5941501c-1.9870098 0-3.5959764 1.6089666-3.5959764 3.5941501s1.6089666 3.5941501 3.5959764 3.5941501m36.4145117 0c1.9851835 0 3.5941501-1.6089666 3.5941501-3.5941501s-1.6089666-3.5941501-3.5941501-3.5941501c-1.9851836 0-3.5941501 1.6089666-3.5941501 3.5941501s1.6089665 3.5941501 3.5941501 3.5941501m-63.68110771 6.1728797c2.01075166 0 3.64163379-1.6308821 3.64163379-3.6416338 0-2.0107516-1.63088213-3.6398075-3.64163379-3.6398075s-3.64163379 1.6290559-3.64163379 3.6398075c0 2.0107517 1.63088213 3.6416338 3.64163379 3.6416338m18.20999521 0c2.0089254 0 3.6398075-1.6308821 3.6398075-3.6416338 0-2.0107516-1.6308821-3.6398075-3.6398075-3.6398075-2.0107516 0-3.64346 1.6290559-3.64346 3.6398075 0 2.0107517 1.6327084 3.6416338 3.64346 3.6416338m36.416338 0c2.0089253 0 3.6398075-1.6308821 3.6398075-3.6416338 0-2.0107516-1.6308822-3.6398075-3.6398075-3.6398075-2.012578 0-3.6434601 1.6290559-3.6434601 3.6398075 0 2.0107517 1.6308821 3.6416338 3.6434601 3.6416338m18.2063426 0c2.0107517 0 3.6416338-1.6308821 3.6416338-3.6416338 0-2.0107516-1.6308821-3.6398075-3.6416338-3.6398075-2.0107516 0-3.6398075 1.6290559-3.6398075 3.6398075 0 2.0107517 1.6290559 3.6416338 3.6398075 3.6416338m-63.776075 6.4066456c1.9851835 0 3.5959764-1.6089665 3.5959764-3.5941501 0-1.9851835-1.6107929-3.5941501-3.5959764-3.5941501s-3.59232382 1.6089666-3.59232382 3.5941501c0 1.9851836 1.60714032 3.5941501 3.59232382 3.5941501m36.4163379 0c1.9851835 0 3.5941501-1.6089665 3.5941501-3.5941501 0-1.9851835-1.6089666-3.5941501-3.5941501-3.5941501s-3.5923238 1.6089666-3.5923238 3.5941501c0 1.9851836 1.6071403 3.5941501 3.5923238 3.5941501m18.208169 0c1.9851835 0 3.5941501-1.6089665 3.5941501-3.5941501 0-1.9851835-1.6089666-3.5941501-3.5941501-3.5941501-1.9851836 0-3.5941501 1.6089666-3.5941501 3.5941501 0 1.9851836 1.6089665 3.5941501 3.5941501 3.5941501m18.2081689 0c1.9870098 0 3.5941501-1.6089665 3.5941501-3.5941501 0-1.9851835-1.6071403-3.5941501-3.5941501-3.5941501-1.9851835 0-3.5941501 1.6089666-3.5941501 3.5941501 0 1.9851836 1.6089666 3.5941501 3.5941501 3.5941501m-81.88927661 6.3390727c2.01075166 0 3.64163379-1.6308821 3.64163379-3.6416338 0-2.0107516-1.63088213-3.6416338-3.64163379-3.6416338s-3.64163379 1.6308822-3.64163379 3.6416338c0 2.0107517 1.63088213 3.6416338 3.64163379 3.6416338m18.20999521 0c2.0089254 0 3.6398075-1.6308821 3.6398075-3.6416338 0-2.0107516-1.6308821-3.6416338-3.6398075-3.6416338-2.0107516 0-3.64346 1.6308822-3.64346 3.6416338 0 2.0107517 1.6327084 3.6416338 3.64346 3.6416338m18.2063427 0c2.0107517 0 3.6416338-1.6308821 3.6416338-3.6416338 0-2.0107516-1.6308821-3.6416338-3.6416338-3.6416338-2.0107516 0-3.6416338 1.6308822-3.6416338 3.6416338 0 2.0107517 1.6308822 3.6416338 3.6416338 3.6416338m18.2099953 0c2.0089253 0 3.6398075-1.6308821 3.6398075-3.6416338 0-2.0107516-1.6308822-3.6416338-3.6398075-3.6416338-2.012578 0-3.6434601 1.6308822-3.6434601 3.6416338 0 2.0107517 1.6308821 3.6416338 3.6434601 3.6416338m18.2063426 0c2.0107517 0 3.6416338-1.6308821 3.6416338-3.6416338 0-2.0107516-1.6308821-3.6416338-3.6416338-3.6416338-2.0107516 0-3.6398075 1.6308822-3.6398075 3.6416338 0 2.0107517 1.6290559 3.6416338 3.6398075 3.6416338m18.2099953 0c2.0089253 0 3.6398075-1.6308821 3.6398075-3.6416338 0-2.0107516-1.6308822-3.6416338-3.6398075-3.6416338-2.012578 0-3.6434601 1.6308822-3.6434601 3.6416338 0 2.0107517 1.6308821 3.6416338 3.6434601 3.6416338m-81.9860703 6.2404527c1.9851835 0 3.5959764-1.6089666 3.5959764-3.5941501s-1.6107929-3.5941501-3.5959764-3.5941501-3.59232382 1.6089666-3.59232382 3.5941501 1.60714032 3.5941501 3.59232382 3.5941501m18.2099952 0c1.9851836 0 3.5923238-1.6089666 3.5923238-3.5941501s-1.6071402-3.5941501-3.5923238-3.5941501c-1.9870098 0-3.5959764 1.6089666-3.5959764 3.5941501s1.6089666 3.5941501 3.5959764 3.5941501m18.2063427 0c1.9851835 0 3.5941501-1.6089666 3.5941501-3.5941501s-1.6089666-3.5941501-3.5941501-3.5941501-3.5923238 1.6089666-3.5923238 3.5941501 1.6071403 3.5941501 3.5923238 3.5941501m36.4163379 0c1.9870098 0 3.5941501-1.6089666 3.5941501-3.5941501s-1.6071403-3.5941501-3.5941501-3.5941501c-1.9851835 0-3.5941501 1.6089666-3.5941501 3.5941501s1.6089666 3.5941501 3.5941501 3.5941501m-63.6792814 6.5052656c2.0089254 0 3.6398075-1.6308822 3.6398075-3.6398075 0-2.012578-1.6308821-3.6416338-3.6398075-3.6416338-2.0107516 0-3.64346 1.6290558-3.64346 3.6416338 0 2.0089253 1.6327084 3.6398075 3.64346 3.6398075m18.2063427 0c2.0107517 0 3.6416338-1.6308822 3.6416338-3.6398075 0-2.012578-1.6308821-3.6416338-3.6416338-3.6416338-2.0107516 0-3.6416338 1.6290558-3.6416338 3.6416338 0 2.0089253 1.6308822 3.6398075 3.6416338 3.6398075m36.4163379 0c2.0107517 0 3.6416338-1.6308822 3.6416338-3.6398075 0-2.012578-1.6308821-3.6416338-3.6416338-3.6416338-2.0107516 0-3.6398075 1.6290558-3.6398075 3.6416338 0 2.0089253 1.6290559 3.6398075 3.6398075 3.6398075m18.2099953 0c2.0089253 0 3.6398075-1.6308822 3.6398075-3.6398075 0-2.012578-1.6308822-3.6416338-3.6398075-3.6416338-2.012578 0-3.6434601 1.6290558-3.6434601 3.6416338 0 2.0089253 1.6308821 3.6398075 3.6434601 3.6398075m-63.7760751 6.0742597c1.9851836 0 3.5923238-1.6107928 3.5923238-3.5959764 0-1.9833572-1.6071402-3.5923238-3.5923238-3.5923238-1.9870098 0-3.5959764 1.6089666-3.5959764 3.5923238 0 1.9851836 1.6089666 3.5959764 3.5959764 3.5959764m36.4145117 0c1.9851835 0 3.5941501-1.6107928 3.5941501-3.5959764 0-1.9833572-1.6089666-3.5923238-3.5941501-3.5923238-1.9851836 0-3.5941501 1.6089666-3.5941501 3.5923238 0 1.9851836 1.6089665 3.5959764 3.5941501 3.5959764m18.2081689 0c1.9870098 0 3.5941501-1.6107928 3.5941501-3.5959764 0-1.9833572-1.6071403-3.5923238-3.5941501-3.5923238-1.9851835 0-3.5941501 1.6089666-3.5941501 3.5923238 0 1.9851836 1.6089666 3.5959764 3.5941501 3.5959764m-27.2629434 6.6732848c2.0089253 0 3.6398075-1.6327084 3.6398075-3.64346 0-2.0089254-1.6308822-3.6416338-3.6398075-3.6416338-2.012578 0-3.6434601 1.6327084-3.6434601 3.6416338 0 2.0107516 1.6308821 3.64346 3.6434601 3.64346m18.2063426 0c2.0107517 0 3.6416338-1.6327084 3.6416338-3.64346 0-2.0089254-1.6308821-3.6416338-3.6416338-3.6416338-2.0107516 0-3.6398075 1.6327084-3.6398075 3.6416338 0 2.0107516 1.6290559 3.64346 3.6398075 3.64346m-27.3597371 5.9062406c1.9851835 0 3.5941501-1.6089666 3.5941501-3.5941501 0-1.9870098-1.6089666-3.5959764-3.5941501-3.5959764s-3.5923238 1.6089666-3.5923238 3.5959764c0 1.9851835 1.6071403 3.5941501 3.5923238 3.5941501"/><path d="m70.9168916 73.3239494c0-1.9870098-1.6089666-3.5959764-3.5941501-3.5959764-1.9851836 0-3.5941501 1.6089666-3.5941501 3.5959764 0 1.9851835 1.6089665 3.5941501 3.5941501 3.5941501 1.9851835 0 3.5941501-1.6089666 3.5941501-3.5941501zm-9.0091171 6.791994c0-2.0125779-1.6308822-3.6416338-3.6398075-3.6416338-2.012578 0-3.6434601 1.6290559-3.6434601 3.6416338 0 2.0089254 1.6308821 3.6398075 3.6434601 3.6398075 2.0089253 0 3.6398075-1.6308821 3.6398075-3.6398075z" mask="url(#a)"/></g></g></svg>