<?xml version="1.0" encoding="UTF-8"?>
<svg id="Ebene_2" data-name="Ebene 2" xmlns="http://www.w3.org/2000/svg" viewBox="0 0 499.15 189.36">
  <defs>
    <style>
      .cls-1 {
        fill: none;
      }

      .cls-2 {
        fill-rule: evenodd;
      }

      .cls-2, .cls-3 {
        fill: #fff;
      }
    </style>
  </defs>
  <g id="Ebene_1" data-name="Ebene 1">
    <g>
      <polygon class="cls-3" points="94.65 60.3 152.28 60.3 154.95 60.3 154.95 62.98 154.95 126.38 154.95 129.06 152.28 129.06 94.65 129.06 94.65 123.7 149.59 123.7 149.59 65.66 94.65 65.66 94.65 60.3"/>
      <g>
        <path class="cls-2" d="M435.24,111.74c-.25.23-.51.53-.51.88,0,.45.18.65.47.65.82,0,.47-2.39,2.21-2.39.99,0,1.43.75,1.43,1.75,0,.76-.34,1.39-.96,1.81l-.57-.75c.36-.27.69-.62.69-1.12,0-.4-.22-.68-.55-.68-.82,0-.52,2.39-2.18,2.39-.9,0-1.39-.76-1.39-1.58,0-.64.24-1.27.73-1.68l.62.72Z"/>
        <path class="cls-2" d="M436.55,109.21c.99-.02,1.37-.46,1.37-.99s-.23-.78-.57-1.07l.51-.83c.68.45.98,1.09.98,2.01,0,1.24-.96,2.02-2.49,2.02s-2.48-.78-2.48-2.08c0-1.25,1.04-1.95,2.2-1.95h.47v2.89h0ZM435.78,107.38c-.66.02-1.04.37-1.04.92s.39.9,1.04.92v-1.84Z"/>
        <path class="cls-2" d="M433.1,105.27h-1.07v-1.13h1.07v1.13h0ZM438.75,104.13v1.13h-4.78v-1.13h4.78Z"/>
        <path class="cls-2" d="M433.97,102.65h-1.58v-1.14h1.58v-.94h.92v.94h2.7c.26,0,.33-.13.33-.41,0-.17-.06-.36-.09-.52h.94c.04.31.08.59.08.9,0,.84-.43,1.17-1.1,1.17h-2.85v.66h-.92v-.66Z"/>
        <path class="cls-2" d="M438.75,96.23h-.92v-1.02h-4.57v1.17h-.77c-.03-.61-.17-1.13-.46-1.44v-.92h5.8v-1.02h.92v3.24Z"/>
        <path class="cls-2" d="M437.4,90.87c.23-.28.45-.65.45-1.12,0-.9-.9-1.64-2.02-1.66.38.43.53.88.53,1.49,0,1.17-.88,2.04-2.15,2.04-1.39,0-2.19-1.01-2.19-2.34s1-2.38,3.01-2.38c2.32,0,3.8,1.05,3.8,2.85,0,.64-.18,1.14-.5,1.64l-.96-.52h0ZM435.38,89.29c0-.53-.26-.94-.76-1.19-1.12,0-1.59.64-1.59,1.28s.45,1.07,1.14,1.06c.74.01,1.21-.4,1.21-1.14Z"/>
        <path class="cls-2" d="M438.75,85.83h-1.09c-1.04-.21-2.51-3.27-3.72-3.27-.58,0-.91.37-.91.98,0,.66.43,1.04,1.04,1.19l-.23,1.06c-1.02-.14-1.81-1.09-1.81-2.27s.67-2.15,1.91-2.15c1.61,0,2.28,1.49,3.79,3.14v-3.14h1.02v4.46Z"/>
        <path class="cls-2" d="M435.22,76.8c.35-.8.9-1.33,1.82-1.33,1.08,0,1.81,1.06,1.81,2.47s-.72,2.46-1.81,2.46c-.92,0-1.47-.53-1.82-1.34-.35.66-.76,1.08-1.54,1.08-1.01,0-1.65-.85-1.65-2.2s.64-2.21,1.65-2.21c.78,0,1.19.43,1.54,1.08h0ZM433.7,78.95c.61,0,1.02-.68,1.02-1.01s-.53-1.02-1.02-1.02c-.44,0-.75.28-.75,1.02s.31,1.01.75,1.01h0ZM436.97,76.67c-.6,0-1.21,1.06-1.21,1.35s.54,1.19,1.21,1.19c.57,0,.96-.43.96-1.27s-.39-1.27-.96-1.27Z"/>
        <polygon class="cls-2" points="173.48 113.3 173.48 109.62 200.18 81.5 174.85 81.5 174.85 75.09 211.22 75.09 211.22 79.29 185.26 106.89 211.85 106.89 211.85 113.3 173.48 113.3"/>
        <polygon class="cls-2" points="217.63 75.09 251.9 75.09 251.9 81.5 225.1 81.5 225.1 90.39 248.17 90.39 248.17 96.8 225.1 96.8 225.1 106.89 252.53 106.89 252.53 113.3 217.63 113.3 217.63 75.09"/>
        <polygon class="cls-2" points="258.53 75.09 265.98 75.09 265.98 106.67 293.68 106.67 293.68 113.3 258.53 113.3 258.53 75.09"/>
        <polygon class="cls-2" points="299.41 75.09 306.87 75.09 306.87 106.67 334.57 106.67 334.57 113.3 299.41 113.3 299.41 75.09"/>
        <polygon class="cls-2" points="340.29 75.09 374.56 75.09 374.56 81.5 347.75 81.5 347.75 90.39 370.83 90.39 370.83 96.8 347.75 96.8 347.75 106.89 375.19 106.89 375.19 113.3 340.29 113.3 340.29 75.09"/>
        <path class="cls-2" d="M381.18,75.09h22.97c9.04,0,15.55,2.04,15.55,11.41,0,7.04-5.04,10.92-10.67,11.24l11.72,15.56h-9.2l-11.09-15.03h-11.82v15.03h-7.46v-38.21h0ZM403.04,92.07c6.1,0,9.2-.9,9.2-5.41s-3.1-5.37-9.2-5.37h-14.39v10.78h14.39Z"/>
      </g>
      <path class="cls-2" d="M137.45,95.23c0,11.29-9.32,20.46-20.82,20.46s-20.89-9.17-20.89-20.46,9.39-20.53,20.89-20.53,20.82,9.14,20.82,20.53"/>
      <path class="cls-2" d="M99.67,78.28c-7.5,7.42-7.06,15.03-7.21,15.87.07.25-1.31,9.39,7.14,17.98-3.35,2.22-7.35,3.53-11.65,3.53-11.58,0-20.82-9.21-20.82-20.46s9.25-20.5,20.82-20.5c4.29,0,8.3,1.31,11.72,3.57"/>
      <rect class="cls-1" width="499.15" height="189.36"/>
    </g>
  </g>
</svg>